<?xml version="1.0" encoding="UTF-8" standalone="no"?>
<!DOCTYPE svg PUBLIC "-//W3C//DTD SVG 1.1//EN"
 "http://www.w3.org/Graphics/SVG/1.1/DTD/svg11.dtd">
<!-- Generated by graphviz version 2.48.0 (20210717.1556)
 -->
<!-- Pages: 1 -->
<svg width="1008pt" height="648pt"
 viewBox="0.00 0.00 1008.00 648.48" xmlns="http://www.w3.org/2000/svg" xmlns:xlink="http://www.w3.org/1999/xlink">
<g id="graph0" class="graph" transform="scale(0.39 0.39) rotate(0) translate(4 1647.49)">
<polygon fill="white" stroke="transparent" points="-4,4 -4,-1647.49 2563.08,-1647.49 2563.08,4 -4,4"/>
<!-- $(go list &#45;m) -->
<g id="node1" class="node">
<title>$(go list &#45;m)</title>
<polygon fill="#e94762" stroke="transparent" points="1565,-194 1422,-194 1422,-158 1565,-158 1565,-194"/>
<text text-anchor="middle" x="1493.5" y="-169.8" font-family="Helvetica,sans-Serif" font-size="24.00">$(go list &#45;m)</text>
</g>
<!-- github.com/gin&#45;contrib/\nsse -->
<g id="node2" class="node">
<title>github.com/gin&#45;contrib/\nsse</title>
<text text-anchor="middle" x="834.08" y="-1044.99" font-family="Helvetica,sans-Serif" font-size="24.00">github.com/gin&#45;contrib/</text>
<text text-anchor="middle" x="834.08" y="-1018.99" font-family="Helvetica,sans-Serif" font-size="24.00">sse</text>
</g>
<!-- github.com/stretchr/\ntestify -->
<g id="node3" class="node">
<title>github.com/stretchr/\ntestify</title>
<text text-anchor="middle" x="667.34" y="-911.16" font-family="Helvetica,sans-Serif" font-size="24.00">github.com/stretchr/</text>
<text text-anchor="middle" x="667.34" y="-885.16" font-family="Helvetica,sans-Serif" font-size="24.00">testify</text>
</g>
<!-- github.com/gin&#45;contrib/\nsse&#45;&gt;github.com/stretchr/\ntestify -->
<g id="edge1" class="edge">
<title>github.com/gin&#45;contrib/\nsse&#45;&gt;github.com/stretchr/\ntestify</title>
<path fill="none" stroke="black" d="M796.66,-1008.15C771.86,-988.25 739.17,-962.01 712.87,-940.9"/>
<polygon fill="black" stroke="black" points="714.91,-938.05 704.93,-934.52 710.53,-943.51 714.91,-938.05"/>
</g>
<!-- gopkg.in/yaml.v2 -->
<g id="node10" class="node">
<title>gopkg.in/yaml.v2</title>
<text text-anchor="middle" x="447.32" y="-872.3" font-family="Helvetica,sans-Serif" font-size="24.00">gopkg.in/yaml.v2</text>
</g>
<!-- github.com/stretchr/\ntestify&#45;&gt;gopkg.in/yaml.v2 -->
<g id="edge27" class="edge">
<title>github.com/stretchr/\ntestify&#45;&gt;gopkg.in/yaml.v2</title>
<path fill="none" stroke="black" d="M553.79,-891.02C553.62,-891 553.46,-890.98 553.29,-890.96"/>
<polygon fill="black" stroke="black" points="556.26,-887.78 545.92,-890.09 555.44,-894.73 556.26,-887.78"/>
</g>
<!-- github.com/davecgh/\ngo&#45;spew -->
<g id="node17" class="node">
<title>github.com/davecgh/\ngo&#45;spew</title>
<text text-anchor="middle" x="463.43" y="-1161.35" font-family="Helvetica,sans-Serif" font-size="24.00">github.com/davecgh/</text>
<text text-anchor="middle" x="463.43" y="-1135.35" font-family="Helvetica,sans-Serif" font-size="24.00">go&#45;spew</text>
</g>
<!-- github.com/stretchr/\ntestify&#45;&gt;github.com/davecgh/\ngo&#45;spew -->
<g id="edge24" class="edge">
<title>github.com/stretchr/\ntestify&#45;&gt;github.com/davecgh/\ngo&#45;spew</title>
<path fill="none" stroke="black" d="M642.75,-934.54C605.62,-980.09 535.3,-1066.38 494.62,-1116.28"/>
<polygon fill="black" stroke="black" points="491.72,-1114.3 488.12,-1124.27 497.15,-1118.73 491.72,-1114.3"/>
</g>
<!-- github.com/pmezard/\ngo&#45;difflib -->
<g id="node22" class="node">
<title>github.com/pmezard/\ngo&#45;difflib</title>
<text text-anchor="middle" x="291.61" y="-751.68" font-family="Helvetica,sans-Serif" font-size="24.00">github.com/pmezard/</text>
<text text-anchor="middle" x="291.61" y="-725.68" font-family="Helvetica,sans-Serif" font-size="24.00">go&#45;difflib</text>
</g>
<!-- github.com/stretchr/\ntestify&#45;&gt;github.com/pmezard/\ngo&#45;difflib -->
<g id="edge25" class="edge">
<title>github.com/stretchr/\ntestify&#45;&gt;github.com/pmezard/\ngo&#45;difflib</title>
<path fill="none" stroke="black" d="M596.23,-874.18C532.22,-847.01 438.26,-807.13 371.64,-778.85"/>
<polygon fill="black" stroke="black" points="373,-775.63 362.43,-774.94 370.27,-782.07 373,-775.63"/>
</g>
<!-- github.com/stretchr/\nobjx -->
<g id="node23" class="node">
<title>github.com/stretchr/\nobjx</title>
<text text-anchor="middle" x="461.59" y="-590.03" font-family="Helvetica,sans-Serif" font-size="24.00">github.com/stretchr/</text>
<text text-anchor="middle" x="461.59" y="-564.03" font-family="Helvetica,sans-Serif" font-size="24.00">objx</text>
</g>
<!-- github.com/stretchr/\ntestify&#45;&gt;github.com/stretchr/\nobjx -->
<g id="edge26" class="edge">
<title>github.com/stretchr/\ntestify&#45;&gt;github.com/stretchr/\nobjx</title>
<path fill="none" stroke="black" d="M647.99,-874.15C610.53,-815.69 528.19,-687.17 486.63,-622.31"/>
<polygon fill="black" stroke="black" points="489.39,-620.13 481.05,-613.59 483.49,-623.9 489.39,-620.13"/>
</g>
<!-- github.com/gin&#45;gonic/\ngin -->
<g id="node4" class="node">
<title>github.com/gin&#45;gonic/\ngin</title>
<text text-anchor="middle" x="881.53" y="-826.5" font-family="Helvetica,sans-Serif" font-size="24.00">github.com/gin&#45;gonic/</text>
<text text-anchor="middle" x="881.53" y="-800.5" font-family="Helvetica,sans-Serif" font-size="24.00">gin</text>
</g>
<!-- github.com/gin&#45;gonic/\ngin&#45;&gt;github.com/gin&#45;contrib/\nsse -->
<g id="edge2" class="edge">
<title>github.com/gin&#45;gonic/\ngin&#45;&gt;github.com/gin&#45;contrib/\nsse</title>
<path fill="none" stroke="black" d="M874.93,-850.08C866.54,-888.73 852.02,-955.56 842.74,-998.28"/>
<polygon fill="black" stroke="black" points="839.32,-997.55 840.62,-1008.06 846.16,-999.03 839.32,-997.55"/>
</g>
<!-- github.com/gin&#45;gonic/\ngin&#45;&gt;github.com/stretchr/\ntestify -->
<g id="edge7" class="edge">
<title>github.com/gin&#45;gonic/\ngin&#45;&gt;github.com/stretchr/\ntestify</title>
<path fill="none" stroke="black" d="M805.41,-849.79C788.47,-856.48 770.39,-863.63 753.1,-870.47"/>
<polygon fill="black" stroke="black" points="751.59,-867.3 743.58,-874.23 754.16,-873.81 751.59,-867.3"/>
</g>
<!-- github.com/go&#45;playground/\nvalidator/v10 -->
<g id="node5" class="node">
<title>github.com/go&#45;playground/\nvalidator/v10</title>
<text text-anchor="middle" x="1443.21" y="-821.54" font-family="Helvetica,sans-Serif" font-size="24.00">github.com/go&#45;playground/</text>
<text text-anchor="middle" x="1443.21" y="-795.54" font-family="Helvetica,sans-Serif" font-size="24.00">validator/v10</text>
</g>
<!-- github.com/gin&#45;gonic/\ngin&#45;&gt;github.com/go&#45;playground/\nvalidator/v10 -->
<g id="edge3" class="edge">
<title>github.com/gin&#45;gonic/\ngin&#45;&gt;github.com/go&#45;playground/\nvalidator/v10</title>
<path fill="none" stroke="black" d="M1004.1,-818.62C1085.76,-817.9 1193.94,-816.94 1282.49,-816.16"/>
<polygon fill="black" stroke="black" points="1282.67,-819.66 1292.64,-816.07 1282.61,-812.66 1282.67,-819.66"/>
</g>
<!-- github.com/golang/\nprotobuf -->
<g id="node6" class="node">
<title>github.com/golang/\nprotobuf</title>
<text text-anchor="middle" x="975.47" y="-568.07" font-family="Helvetica,sans-Serif" font-size="24.00">github.com/golang/</text>
<text text-anchor="middle" x="975.47" y="-542.07" font-family="Helvetica,sans-Serif" font-size="24.00">protobuf</text>
</g>
<!-- github.com/gin&#45;gonic/\ngin&#45;&gt;github.com/golang/\nprotobuf -->
<g id="edge4" class="edge">
<title>github.com/gin&#45;gonic/\ngin&#45;&gt;github.com/golang/\nprotobuf</title>
<path fill="none" stroke="black" d="M892.49,-789.55C909.45,-742.9 942.06,-653.17 960.96,-601.19"/>
<polygon fill="black" stroke="black" points="964.31,-602.23 964.43,-591.63 957.73,-599.83 964.31,-602.23"/>
</g>
<!-- github.com/json&#45;iterator/\ngo -->
<g id="node7" class="node">
<title>github.com/json&#45;iterator/\ngo</title>
<text text-anchor="middle" x="668.78" y="-1269.95" font-family="Helvetica,sans-Serif" font-size="24.00">github.com/json&#45;iterator/</text>
<text text-anchor="middle" x="668.78" y="-1243.95" font-family="Helvetica,sans-Serif" font-size="24.00">go</text>
</g>
<!-- github.com/gin&#45;gonic/\ngin&#45;&gt;github.com/json&#45;iterator/\ngo -->
<g id="edge5" class="edge">
<title>github.com/gin&#45;gonic/\ngin&#45;&gt;github.com/json&#45;iterator/\ngo</title>
<path fill="none" stroke="black" d="M867.07,-849.83C829.62,-927.89 729.47,-1136.65 687.59,-1223.94"/>
<polygon fill="black" stroke="black" points="684.42,-1222.45 683.25,-1232.98 690.73,-1225.48 684.42,-1222.45"/>
</g>
<!-- github.com/mattn/\ngo&#45;isatty -->
<g id="node8" class="node">
<title>github.com/mattn/\ngo&#45;isatty</title>
<text text-anchor="middle" x="1186.21" y="-1128.8" font-family="Helvetica,sans-Serif" font-size="24.00">github.com/mattn/</text>
<text text-anchor="middle" x="1186.21" y="-1102.8" font-family="Helvetica,sans-Serif" font-size="24.00">go&#45;isatty</text>
</g>
<!-- github.com/gin&#45;gonic/\ngin&#45;&gt;github.com/mattn/\ngo&#45;isatty -->
<g id="edge6" class="edge">
<title>github.com/gin&#45;gonic/\ngin&#45;&gt;github.com/mattn/\ngo&#45;isatty</title>
<path fill="none" stroke="black" d="M911.86,-849.79C967.83,-905.33 1087.23,-1023.8 1148.39,-1084.48"/>
<polygon fill="black" stroke="black" points="1145.99,-1087.03 1155.55,-1091.59 1150.92,-1082.06 1145.99,-1087.03"/>
</g>
<!-- github.com/ugorji/\ngo/codec -->
<g id="node9" class="node">
<title>github.com/ugorji/\ngo/codec</title>
<text text-anchor="middle" x="980.16" y="-353.8" font-family="Helvetica,sans-Serif" font-size="24.00">github.com/ugorji/</text>
<text text-anchor="middle" x="980.16" y="-327.8" font-family="Helvetica,sans-Serif" font-size="24.00">go/codec</text>
</g>
<!-- github.com/gin&#45;gonic/\ngin&#45;&gt;github.com/ugorji/\ngo/codec -->
<g id="edge8" class="edge">
<title>github.com/gin&#45;gonic/\ngin&#45;&gt;github.com/ugorji/\ngo/codec</title>
<path fill="none" stroke="black" d="M887.85,-789.41C905.02,-707.12 952.54,-479.39 971.85,-386.86"/>
<polygon fill="black" stroke="black" points="975.28,-387.54 973.89,-377.04 968.43,-386.11 975.28,-387.54"/>
</g>
<!-- github.com/gin&#45;gonic/\ngin&#45;&gt;gopkg.in/yaml.v2 -->
<g id="edge9" class="edge">
<title>github.com/gin&#45;gonic/\ngin&#45;&gt;gopkg.in/yaml.v2</title>
<path fill="none" stroke="black" d="M758.84,-836.32C695.06,-844.95 617.77,-855.42 556.14,-863.77"/>
<polygon fill="black" stroke="black" points="555.43,-860.33 545.99,-865.14 556.37,-867.27 555.43,-860.33"/>
</g>
<!-- github.com/go&#45;playground/\nlocales -->
<g id="node11" class="node">
<title>github.com/go&#45;playground/\nlocales</title>
<text text-anchor="middle" x="1860.74" y="-865.78" font-family="Helvetica,sans-Serif" font-size="24.00">github.com/go&#45;playground/</text>
<text text-anchor="middle" x="1860.74" y="-839.78" font-family="Helvetica,sans-Serif" font-size="24.00">locales</text>
</g>
<!-- github.com/go&#45;playground/\nvalidator/v10&#45;&gt;github.com/go&#45;playground/\nlocales -->
<g id="edge13" class="edge">
<title>github.com/go&#45;playground/\nvalidator/v10&#45;&gt;github.com/go&#45;playground/\nlocales</title>
<path fill="none" stroke="black" d="M1593.95,-830.71C1628.39,-834.36 1665.12,-838.25 1699.96,-841.94"/>
<polygon fill="black" stroke="black" points="1699.91,-845.46 1710.22,-843.03 1700.65,-838.49 1699.91,-845.46"/>
</g>
<!-- github.com/go&#45;playground/\nuniversal&#45;translator -->
<g id="node13" class="node">
<title>github.com/go&#45;playground/\nuniversal&#45;translator</title>
<text text-anchor="middle" x="1729.01" y="-698.01" font-family="Helvetica,sans-Serif" font-size="24.00">github.com/go&#45;playground/</text>
<text text-anchor="middle" x="1729.01" y="-672.01" font-family="Helvetica,sans-Serif" font-size="24.00">universal&#45;translator</text>
</g>
<!-- github.com/go&#45;playground/\nvalidator/v10&#45;&gt;github.com/go&#45;playground/\nuniversal&#45;translator -->
<g id="edge14" class="edge">
<title>github.com/go&#45;playground/\nvalidator/v10&#45;&gt;github.com/go&#45;playground/\nuniversal&#45;translator</title>
<path fill="none" stroke="black" d="M1512.76,-784.67C1554.17,-766.78 1606.85,-744.01 1649.85,-725.42"/>
<polygon fill="black" stroke="black" points="1651.36,-728.58 1659.15,-721.4 1648.58,-722.16 1651.36,-728.58"/>
</g>
<!-- github.com/go&#45;playground/\nassert/v2 -->
<g id="node14" class="node">
<title>github.com/go&#45;playground/\nassert/v2</title>
<text text-anchor="middle" x="1536.95" y="-510.68" font-family="Helvetica,sans-Serif" font-size="24.00">github.com/go&#45;playground/</text>
<text text-anchor="middle" x="1536.95" y="-484.68" font-family="Helvetica,sans-Serif" font-size="24.00">assert/v2</text>
</g>
<!-- github.com/go&#45;playground/\nvalidator/v10&#45;&gt;github.com/go&#45;playground/\nassert/v2 -->
<g id="edge12" class="edge">
<title>github.com/go&#45;playground/\nvalidator/v10&#45;&gt;github.com/go&#45;playground/\nassert/v2</title>
<path fill="none" stroke="black" d="M1452.29,-784.65C1469.3,-728.24 1505.97,-606.62 1524.98,-543.58"/>
<polygon fill="black" stroke="black" points="1528.33,-544.57 1527.87,-533.98 1521.63,-542.55 1528.33,-544.57"/>
</g>
<!-- github.com/leodido/\ngo&#45;urn -->
<g id="node15" class="node">
<title>github.com/leodido/\ngo&#45;urn</title>
<text text-anchor="middle" x="1124.55" y="-861.96" font-family="Helvetica,sans-Serif" font-size="24.00">github.com/leodido/</text>
<text text-anchor="middle" x="1124.55" y="-835.96" font-family="Helvetica,sans-Serif" font-size="24.00">go&#45;urn</text>
</g>
<!-- github.com/go&#45;playground/\nvalidator/v10&#45;&gt;github.com/leodido/\ngo&#45;urn -->
<g id="edge15" class="edge">
<title>github.com/go&#45;playground/\nvalidator/v10&#45;&gt;github.com/leodido/\ngo&#45;urn</title>
<path fill="none" stroke="black" d="M1292.28,-833.88C1277.25,-835.79 1262.12,-837.71 1247.43,-839.57"/>
<polygon fill="black" stroke="black" points="1246.81,-836.12 1237.33,-840.85 1247.69,-843.07 1246.81,-836.12"/>
</g>
<!-- golang.org/x/crypto -->
<g id="node16" class="node">
<title>golang.org/x/crypto</title>
<text text-anchor="middle" x="1668.6" y="-1115.5" font-family="Helvetica,sans-Serif" font-size="24.00">golang.org/x/crypto</text>
</g>
<!-- github.com/go&#45;playground/\nvalidator/v10&#45;&gt;golang.org/x/crypto -->
<g id="edge16" class="edge">
<title>github.com/go&#45;playground/\nvalidator/v10&#45;&gt;golang.org/x/crypto</title>
<path fill="none" stroke="black" d="M1465.44,-845.01C1509.6,-905.15 1607.68,-1038.74 1649.31,-1095.44"/>
<polygon fill="black" stroke="black" points="1646.52,-1097.55 1655.26,-1103.54 1652.17,-1093.41 1646.52,-1097.55"/>
</g>
<!-- github.com/json&#45;iterator/\ngo&#45;&gt;github.com/stretchr/\ntestify -->
<g id="edge21" class="edge">
<title>github.com/json&#45;iterator/\ngo&#45;&gt;github.com/stretchr/\ntestify</title>
<path fill="none" stroke="black" d="M668.66,-1232.87C668.4,-1168.3 667.79,-1017.07 667.5,-944.54"/>
<polygon fill="black" stroke="black" points="671,-944.42 667.46,-934.43 664,-944.45 671,-944.42"/>
</g>
<!-- github.com/json&#45;iterator/\ngo&#45;&gt;github.com/davecgh/\ngo&#45;spew -->
<g id="edge17" class="edge">
<title>github.com/json&#45;iterator/\ngo&#45;&gt;github.com/davecgh/\ngo&#45;spew</title>
<path fill="none" stroke="black" d="M611.85,-1233.05C586.26,-1219.51 555.9,-1203.45 529.33,-1189.4"/>
<polygon fill="black" stroke="black" points="530.95,-1186.3 520.47,-1184.72 527.67,-1192.49 530.95,-1186.3"/>
</g>
<!-- github.com/google/\ngofuzz -->
<g id="node18" class="node">
<title>github.com/google/\ngofuzz</title>
<text text-anchor="middle" x="836.93" y="-1551.23" font-family="Helvetica,sans-Serif" font-size="24.00">github.com/google/</text>
<text text-anchor="middle" x="836.93" y="-1525.23" font-family="Helvetica,sans-Serif" font-size="24.00">gofuzz</text>
</g>
<!-- github.com/json&#45;iterator/\ngo&#45;&gt;github.com/google/\ngofuzz -->
<g id="edge18" class="edge">
<title>github.com/json&#45;iterator/\ngo&#45;&gt;github.com/google/\ngofuzz</title>
<path fill="none" stroke="black" d="M686.77,-1293.26C717.41,-1344.51 779.68,-1448.67 813.61,-1505.43"/>
<polygon fill="black" stroke="black" points="810.67,-1507.33 818.81,-1514.12 816.68,-1503.74 810.67,-1507.33"/>
</g>
<!-- github.com/modern&#45;go/\nconcurrent -->
<g id="node19" class="node">
<title>github.com/modern&#45;go/\nconcurrent</title>
<text text-anchor="middle" x="603.1" y="-1620.29" font-family="Helvetica,sans-Serif" font-size="24.00">github.com/modern&#45;go/</text>
<text text-anchor="middle" x="603.1" y="-1594.29" font-family="Helvetica,sans-Serif" font-size="24.00">concurrent</text>
</g>
<!-- github.com/json&#45;iterator/\ngo&#45;&gt;github.com/modern&#45;go/\nconcurrent -->
<g id="edge19" class="edge">
<title>github.com/json&#45;iterator/\ngo&#45;&gt;github.com/modern&#45;go/\nconcurrent</title>
<path fill="none" stroke="black" d="M663.12,-1293.33C651.29,-1356.45 623.92,-1502.44 610.62,-1573.37"/>
<polygon fill="black" stroke="black" points="607.17,-1572.8 608.76,-1583.27 614.05,-1574.09 607.17,-1572.8"/>
</g>
<!-- github.com/modern&#45;go/\nreflect2 -->
<g id="node20" class="node">
<title>github.com/modern&#45;go/\nreflect2</title>
<text text-anchor="middle" x="390.31" y="-1482.88" font-family="Helvetica,sans-Serif" font-size="24.00">github.com/modern&#45;go/</text>
<text text-anchor="middle" x="390.31" y="-1456.88" font-family="Helvetica,sans-Serif" font-size="24.00">reflect2</text>
</g>
<!-- github.com/json&#45;iterator/\ngo&#45;&gt;github.com/modern&#45;go/\nreflect2 -->
<g id="edge20" class="edge">
<title>github.com/json&#45;iterator/\ngo&#45;&gt;github.com/modern&#45;go/\nreflect2</title>
<path fill="none" stroke="black" d="M629.47,-1293.21C579.13,-1331.7 491.96,-1398.36 437.92,-1439.68"/>
<polygon fill="black" stroke="black" points="435.69,-1436.98 429.87,-1445.84 439.94,-1442.54 435.69,-1436.98"/>
</g>
<!-- golang.org/x/sys -->
<g id="node21" class="node">
<title>golang.org/x/sys</title>
<text text-anchor="middle" x="1452.46" y="-1279.31" font-family="Helvetica,sans-Serif" font-size="24.00">golang.org/x/sys</text>
</g>
<!-- github.com/mattn/\ngo&#45;isatty&#45;&gt;golang.org/x/sys -->
<g id="edge23" class="edge">
<title>github.com/mattn/\ngo&#45;isatty&#45;&gt;golang.org/x/sys</title>
<path fill="none" stroke="black" d="M1235.35,-1152.18C1287.02,-1183.91 1367.2,-1233.16 1414.3,-1262.08"/>
<polygon fill="black" stroke="black" points="1412.63,-1265.16 1422.98,-1267.41 1416.29,-1259.19 1412.63,-1265.16"/>
</g>
<!-- github.com/ugorji/\ngo -->
<g id="node24" class="node">
<title>github.com/ugorji/\ngo</title>
<text text-anchor="middle" x="1003.3" y="-36.8" font-family="Helvetica,sans-Serif" font-size="24.00">github.com/ugorji/</text>
<text text-anchor="middle" x="1003.3" y="-10.8" font-family="Helvetica,sans-Serif" font-size="24.00">go</text>
</g>
<!-- github.com/ugorji/\ngo/codec&#45;&gt;github.com/ugorji/\ngo -->
<g id="edge29" class="edge">
<title>github.com/ugorji/\ngo/codec&#45;&gt;github.com/ugorji/\ngo</title>
<path fill="none" stroke="black" d="M986.55,-316.91C994,-259.6 1003.27,-134.79 1005.03,-70.32"/>
<polygon fill="black" stroke="black" points="1008.54,-70.22 1005.26,-60.14 1001.54,-70.06 1008.54,-70.22"/>
</g>
<!-- gopkg.in/check.v1 -->
<g id="node27" class="node">
<title>gopkg.in/check.v1</title>
<text text-anchor="middle" x="104.5" y="-933.74" font-family="Helvetica,sans-Serif" font-size="24.00">gopkg.in/check.v1</text>
</g>
<!-- gopkg.in/yaml.v2&#45;&gt;gopkg.in/check.v1 -->
<g id="edge35" class="edge">
<title>gopkg.in/yaml.v2&#45;&gt;gopkg.in/check.v1</title>
<path fill="none" stroke="black" d="M348.62,-896.19C306.87,-903.67 258.06,-912.42 215.1,-920.12"/>
<polygon fill="black" stroke="black" points="214.4,-916.69 205.18,-921.9 215.64,-923.58 214.4,-916.69"/>
</g>
<!-- golang.org/x/text -->
<g id="node12" class="node">
<title>golang.org/x/text</title>
<text text-anchor="middle" x="2174.04" y="-1022.62" font-family="Helvetica,sans-Serif" font-size="24.00">golang.org/x/text</text>
</g>
<!-- github.com/go&#45;playground/\nlocales&#45;&gt;golang.org/x/text -->
<g id="edge10" class="edge">
<title>github.com/go&#45;playground/\nlocales&#45;&gt;golang.org/x/text</title>
<path fill="none" stroke="black" d="M1916.39,-889.15C1978.02,-922.56 2076.01,-975.68 2131.69,-1005.87"/>
<polygon fill="black" stroke="black" points="2130.13,-1009 2140.59,-1010.69 2133.46,-1002.85 2130.13,-1009"/>
</g>
<!-- golang.org/x/tools -->
<g id="node26" class="node">
<title>golang.org/x/tools</title>
<text text-anchor="middle" x="2456.08" y="-1116.44" font-family="Helvetica,sans-Serif" font-size="24.00">golang.org/x/tools</text>
</g>
<!-- golang.org/x/text&#45;&gt;golang.org/x/tools -->
<g id="edge34" class="edge">
<title>golang.org/x/text&#45;&gt;golang.org/x/tools</title>
<path fill="none" stroke="black" d="M2228.42,-1046.91C2275.24,-1062.49 2342.87,-1084.98 2392.25,-1101.41"/>
<polygon fill="black" stroke="black" points="2391.27,-1104.77 2401.87,-1104.61 2393.48,-1098.13 2391.27,-1104.77"/>
</g>
<!-- github.com/go&#45;playground/\nuniversal&#45;translator&#45;&gt;github.com/go&#45;playground/\nlocales -->
<g id="edge11" class="edge">
<title>github.com/go&#45;playground/\nuniversal&#45;translator&#45;&gt;github.com/go&#45;playground/\nlocales</title>
<path fill="none" stroke="black" d="M1752.87,-721.59C1774.69,-749.38 1807.07,-790.62 1830.66,-820.67"/>
<polygon fill="black" stroke="black" points="1828.13,-823.12 1837.06,-828.82 1833.64,-818.79 1828.13,-823.12"/>
</g>
<!-- github.com/leodido/\ngo&#45;urn&#45;&gt;github.com/stretchr/\ntestify -->
<g id="edge22" class="edge">
<title>github.com/leodido/\ngo&#45;urn&#45;&gt;github.com/stretchr/\ntestify</title>
<path fill="none" stroke="black" d="M1011.83,-867.29C944.91,-874.49 859.99,-883.63 791.21,-891.03"/>
<polygon fill="black" stroke="black" points="790.75,-887.56 781.18,-892.11 791.5,-894.52 790.75,-887.56"/>
</g>
<!-- golang.org/x/crypto&#45;&gt;golang.org/x/sys -->
<g id="edge31" class="edge">
<title>golang.org/x/crypto&#45;&gt;golang.org/x/sys</title>
<path fill="none" stroke="black" d="M1644.64,-1139.86C1605.61,-1169.44 1528.27,-1228.05 1484.54,-1261.2"/>
<polygon fill="black" stroke="black" points="1482.38,-1258.44 1476.52,-1267.27 1486.61,-1264.02 1482.38,-1258.44"/>
</g>
<!-- golang.org/x/net -->
<g id="node25" class="node">
<title>golang.org/x/net</title>
<text text-anchor="middle" x="1979.98" y="-1202.47" font-family="Helvetica,sans-Serif" font-size="24.00">golang.org/x/net</text>
</g>
<!-- golang.org/x/crypto&#45;&gt;golang.org/x/net -->
<g id="edge30" class="edge">
<title>golang.org/x/crypto&#45;&gt;golang.org/x/net</title>
<path fill="none" stroke="black" d="M1714.54,-1139.74C1758.61,-1153.87 1826.52,-1173.28 1882.63,-1188"/>
<polygon fill="black" stroke="black" points="1882.04,-1191.47 1892.6,-1190.6 1883.8,-1184.69 1882.04,-1191.47"/>
</g>
<!-- github.com/ugorji/\ngo&#45;&gt;github.com/ugorji/\ngo/codec -->
<g id="edge28" class="edge">
<title>github.com/ugorji/\ngo&#45;&gt;github.com/ugorji/\ngo/codec</title>
<path fill="none" stroke="black" d="M996.91,-60.09C989.46,-117.4 980.19,-242.21 978.43,-306.68"/>
<polygon fill="black" stroke="black" points="974.92,-306.78 978.2,-316.86 981.92,-306.94 974.92,-306.78"/>
</g>
<!-- golang.org/x/net&#45;&gt;golang.org/x/text -->
<g id="edge33" class="edge">
<title>golang.org/x/net&#45;&gt;golang.org/x/text</title>
<path fill="none" stroke="black" d="M1999.65,-1190.43C2034.61,-1158.03 2107.59,-1090.4 2147.15,-1053.74"/>
<polygon fill="black" stroke="black" points="2149.64,-1056.2 2154.6,-1046.84 2144.88,-1051.07 2149.64,-1056.2"/>
</g>
<!-- golang.org/x/net&#45;&gt;golang.org/x/crypto -->
<g id="edge32" class="edge">
<title>golang.org/x/net&#45;&gt;golang.org/x/crypto</title>
<path fill="none" stroke="black" d="M1934.03,-1190.64C1889.97,-1176.5 1822.05,-1157.09 1765.95,-1142.37"/>
<polygon fill="black" stroke="black" points="1766.54,-1138.91 1755.98,-1139.77 1764.77,-1145.68 1766.54,-1138.91"/>
</g>
<!-- hello&#45;world -->
<g id="node28" class="node">
<title>hello&#45;world</title>
<text text-anchor="middle" x="738.26" y="-525.8" font-family="Helvetica,sans-Serif" font-size="24.00">hello&#45;world</text>
</g>
<!-- hello&#45;world&#45;&gt;github.com/gin&#45;gonic/\ngin -->
<g id="edge36" class="edge">
<title>hello&#45;world&#45;&gt;github.com/gin&#45;gonic/\ngin</title>
<path fill="none" stroke="black" d="M747.44,-550.43C770.35,-596.44 830.45,-717.13 861.82,-780.13"/>
<polygon fill="black" stroke="black" points="858.83,-781.97 866.42,-789.36 865.09,-778.85 858.83,-781.97"/>
</g>
</g>
</svg>
